<?xml version="1.0" encoding="utf-8"?>
<!-- Generator: Adobe Illustrator 24.0.3, SVG Export Plug-In . SVG Version: 6.00 Build 0)  -->
<svg version="1.1" id="Layer_1" xmlns="http://www.w3.org/2000/svg" xmlns:xlink="http://www.w3.org/1999/xlink" x="0px" y="0px"
	 viewBox="0 0 820 360" style="enable-background:new 0 0 820 360;" xml:space="preserve">
<style type="text/css">
	.st0{fill:url(#SVGID_1_);}
	.st1{fill:url(#SVGID_2_);}
	.st2{fill:url(#SVGID_3_);}
	.st3{fill:url(#SVGID_4_);}
	.st4{fill:url(#SVGID_5_);}
	.st5{fill:url(#SVGID_6_);}
	.st6{fill:url(#SVGID_7_);}
	.st7{fill:url(#SVGID_8_);}
	.st8{fill:url(#SVGID_9_);}
	.st9{fill:url(#SVGID_10_);}
	.st10{fill:url(#SVGID_11_);}
	.st11{fill:#FFFFFF;}
	.st12{fill:url(#SVGID_12_);}
	.st13{fill:url(#SVGID_13_);}
	.st14{fill:url(#SVGID_14_);}
	.st15{fill:url(#SVGID_15_);}
	.st16{fill:url(#SVGID_16_);}
	.st17{fill:url(#SVGID_17_);}
	.st18{fill:url(#SVGID_18_);}
	.st19{fill:url(#SVGID_19_);}
	.st20{fill:url(#SVGID_20_);}
	.st21{fill:url(#SVGID_21_);}
	.st22{fill:url(#SVGID_22_);}
	.st23{fill:url(#SVGID_23_);}
	.st24{fill:url(#SVGID_24_);}
	.st25{fill:url(#SVGID_25_);}
	.st26{fill:url(#SVGID_26_);}
	.st27{fill:#F1F1F1;}
	.st28{fill:url(#SVGID_27_);}
	.st29{fill:url(#SVGID_28_);}
	.st30{fill:url(#SVGID_29_);}
	.st31{fill:url(#SVGID_30_);}
	.st32{fill:#D0D2D3;}
	.st33{fill:url(#SVGID_31_);}
	.st34{fill:url(#SVGID_32_);}
	.st35{fill:url(#SVGID_33_);}
	.st36{fill:url(#SVGID_34_);}
	.st37{fill:#BBBCBE;}
	.st38{fill:url(#SVGID_35_);}
	.st39{opacity:0.7;}
	.st40{fill:#294689;}
	.st41{fill:url(#SVGID_36_);}
	.st42{fill:url(#SVGID_37_);}
	.st43{fill:url(#SVGID_38_);}
	.st44{fill:url(#SVGID_39_);}
	.st45{fill:url(#SVGID_40_);}
	.st46{fill:url(#SVGID_41_);}
	.st47{fill:url(#SVGID_42_);}
	.st48{fill:url(#SVGID_43_);}
	.st49{fill:url(#SVGID_44_);}
	.st50{fill:#FDD053;}
	.st51{fill:url(#SVGID_45_);}
	.st52{fill:url(#SVGID_46_);}
	.st53{fill:url(#SVGID_47_);}
	.st54{fill:url(#SVGID_48_);}
	.st55{fill:url(#SVGID_49_);}
	.st56{fill:url(#SVGID_50_);}
	.st57{fill:url(#SVGID_51_);}
	.st58{fill:url(#SVGID_52_);}
	.st59{fill:url(#SVGID_53_);}
	.st60{fill:url(#SVGID_54_);}
	.st61{fill:url(#SVGID_55_);}
	.st62{fill:url(#SVGID_56_);}
	.st63{fill:url(#SVGID_57_);}
	.st64{fill:url(#SVGID_58_);}
	.st65{fill:url(#SVGID_59_);}
	.st66{fill:#2C084D;}
	.st67{fill:url(#SVGID_60_);}
	.st68{fill:#231F20;}
	.st69{fill:url(#SVGID_61_);}
	.st70{fill:#CCCCCC;}
	.st71{fill:url(#SVGID_62_);}
	.st72{fill:url(#SVGID_63_);}
	.st73{fill:url(#SVGID_64_);}
	.st74{fill:url(#SVGID_65_);}
	.st75{fill:url(#SVGID_66_);}
	.st76{fill:url(#SVGID_67_);}
	.st77{fill:url(#SVGID_68_);}
	.st78{fill:url(#SVGID_69_);}
	.st79{fill:url(#SVGID_70_);}
	.st80{fill:url(#SVGID_71_);}
	.st81{fill:url(#SVGID_72_);}
	.st82{fill:url(#SVGID_73_);}
	.st83{fill:url(#SVGID_74_);}
	.st84{fill:url(#SVGID_75_);}
	.st85{fill:url(#SVGID_76_);}
	.st86{fill:url(#SVGID_77_);}
	.st87{fill:url(#SVGID_78_);}
	.st88{fill:#E7E6E6;}
	.st89{fill:url(#SVGID_79_);}
	.st90{fill:#1A2D3B;}
	.st91{fill:url(#SVGID_80_);}
	.st92{fill:url(#SVGID_81_);}
	.st93{fill:#2E3168;}
	.st94{fill:#8B89C2;}
	.st95{fill:url(#SVGID_82_);}
	.st96{fill:url(#SVGID_83_);}
	.st97{fill:url(#SVGID_84_);}
	.st98{fill:url(#SVGID_85_);}
</style>
<g>
	<linearGradient id="SVGID_1_" gradientUnits="userSpaceOnUse" x1="559.61" y1="239.9055" x2="762.7423" y2="239.9055">
		<stop  offset="0" style="stop-color:#FFFFFF"/>
		<stop  offset="1" style="stop-color:#97CBEE"/>
	</linearGradient>
	<path class="st0" d="M760.4,284.8c0,0-55.6-118.2-59.3-120.7c0,0-32.6-21.1-39.3-25c-0.1-0.4-0.3-0.5-0.4-0.4c0,0-0.1,0.1-0.2,0.1
		c0,0-0.1-0.1-0.2-0.1c-0.2-0.1-0.3,0.1-0.4,0.4c-6.7,3.9-39.3,25-39.3,25c-3.6,2.5-59.3,120.7-59.3,120.7s-19.9,47.5,55.6,54
		c23.3,2,36.5,2.6,43.5,2.3c7.1,0.2,20.2-0.3,43.5-2.3C780.3,332.2,760.4,284.8,760.4,284.8z"/>
	<linearGradient id="SVGID_2_" gradientUnits="userSpaceOnUse" x1="564.4971" y1="248.1695" x2="761.7177" y2="248.1695">
		<stop  offset="0" style="stop-color:#FFFFFF"/>
		<stop  offset="1" style="stop-color:#97CBEE"/>
	</linearGradient>
	<path class="st1" d="M759.3,284.5c0,0-55.6-118.2-59.3-120.7c0,0-5.9-3.8-13.2-8.5c12,21.8,56.5,116.3,56.5,116.3
		s19.9,47.5-55.6,54c-23.3,2-36.5,2.6-43.5,2.3c-7.1,0.2-20.2-0.3-43.5-2.3c-15.9-1.4-27.6-4.6-36.1-8.8c7.1,10,22.1,19.1,52.1,21.7
		c23.3,2,36.5,2.6,43.5,2.3c7.1,0.2,20.2-0.3,43.5-2.3C779.3,332,759.3,284.5,759.3,284.5z"/>
	<linearGradient id="SVGID_3_" gradientUnits="userSpaceOnUse" x1="606.9753" y1="134.1292" x2="716.0064" y2="134.1292">
		<stop  offset="0" style="stop-color:#FFFFFF"/>
		<stop  offset="1" style="stop-color:#97CBEE"/>
	</linearGradient>
	<path class="st2" d="M716,102.7c-9.1,0-9.1,16.1-18.2,16.1c-9.1,0-9.1-16.1-18.2-16c-9.1,0-9.1,16.1-18.2,16.1
		c-9.1,0-9.1-16.1-18.2-16c-9.1,0-9.1,16.1-18.2,16.1c-9.1,0-9.1-16.1-18.2-16l15.8,62.9l76.3-0.3L716,102.7z"/>
	<g>
		<linearGradient id="SVGID_4_" gradientUnits="userSpaceOnUse" x1="676.3772" y1="109.6888" x2="691.6575" y2="109.6888">
			<stop  offset="0" style="stop-color:#FFFFFF"/>
			<stop  offset="1" style="stop-color:#97CBEE"/>
		</linearGradient>
		<path class="st3" d="M688,116.3c1.4,0,2.6-0.4,3.7-1.1c-3.5-4.8-5.4-12.1-11.6-12.1c-1.4,0-2.6,0.4-3.7,1.1
			C679.8,108.9,681.8,116.3,688,116.3z"/>
		<linearGradient id="SVGID_5_" gradientUnits="userSpaceOnUse" x1="640.0353" y1="109.7168" x2="655.3102" y2="109.7168">
			<stop  offset="0" style="stop-color:#FFFFFF"/>
			<stop  offset="1" style="stop-color:#97CBEE"/>
		</linearGradient>
		<path class="st4" d="M651.6,116.3c1.4,0,2.6-0.4,3.7-1.1c-3.5-4.8-5.4-12.1-11.6-12.1c-1.4,0-2.6,0.4-3.7,1.1
			C643.5,108.9,645.5,116.3,651.6,116.3z"/>
		<linearGradient id="SVGID_6_" gradientUnits="userSpaceOnUse" x1="607.3856" y1="109.7458" x2="618.9748" y2="109.7458">
			<stop  offset="0" style="stop-color:#FFFFFF"/>
			<stop  offset="1" style="stop-color:#97CBEE"/>
		</linearGradient>
		<path class="st5" d="M615.3,116.3c1.4,0,2.6-0.4,3.7-1.1c-3.5-4.8-5.4-12.1-11.6-12.1l2.7,10.9
			C611.5,115.4,613.1,116.3,615.3,116.3z"/>
		<linearGradient id="SVGID_7_" gradientUnits="userSpaceOnUse" x1="622.4384" y1="134.539" x2="716.416" y2="134.539">
			<stop  offset="0" style="stop-color:#FFFFFF"/>
			<stop  offset="1" style="stop-color:#97CBEE"/>
		</linearGradient>
		<path class="st6" d="M701.2,118.5l-12,44.4l-66.8,0.2l0.7,2.9l76.3-0.3l17-62.7C708.5,103.1,707.5,115.4,701.2,118.5z"/>
	</g>
	<g>
		<linearGradient id="SVGID_8_" gradientUnits="userSpaceOnUse" x1="727.1224" y1="179.6036" x2="688.5273" y2="157.9904">
			<stop  offset="0" style="stop-color:#FFFFFF"/>
			<stop  offset="1" style="stop-color:#97CBEE"/>
		</linearGradient>
		<path class="st7" d="M700.4,158.8c0,0,21.2,12.7,20.5,13.1c-0.8,0.4-5.7,6.3-6.5,6.3c-0.8,0-17.2-12.7-17.8-12.7
			C695.9,165.6,700.6,158.2,700.4,158.8z"/>
		<linearGradient id="SVGID_9_" gradientUnits="userSpaceOnUse" x1="699.4864" y1="210.2079" x2="703.8605" y2="166.9808">
			<stop  offset="0" style="stop-color:#FFFFFF"/>
			<stop  offset="1" style="stop-color:#97CBEE"/>
		</linearGradient>
		<path class="st8" d="M687.5,165.3c0,0,16,43,16.6,43.2c0.6,0.2,12.1-0.4,12.1-0.4l-18.6-45L687.5,165.3z"/>
		<linearGradient id="SVGID_10_" gradientUnits="userSpaceOnUse" x1="707.3489" y1="160.3162" x2="643.2803" y2="162.1174">
			<stop  offset="0" style="stop-color:#FFFFFF"/>
			<stop  offset="1" style="stop-color:#97CBEE"/>
		</linearGradient>
		<path class="st9" d="M702.6,161.6c0,3.5-2.8,6.3-6.3,6.3h-71c-3.5,0-6.3-2.8-6.3-6.3l0,0c0-3.5,2.8-6.3,6.3-6.3h71
			C699.8,155.3,702.6,158.1,702.6,161.6L702.6,161.6z"/>
		<linearGradient id="SVGID_11_" gradientUnits="userSpaceOnUse" x1="615.2385" y1="154.0523" x2="707.1461" y2="154.0523">
			<stop  offset="0" style="stop-color:#FFFFFF"/>
			<stop  offset="1" style="stop-color:#97CBEE"/>
		</linearGradient>
		<path class="st10" d="M707.1,154.1c0,3.5-2.8,6.3-6.3,6.3h-79.2c-3.5,0-6.3-2.8-6.3-6.3l0,0c0-3.5,2.8-6.3,6.3-6.3h79.2
			C704.3,147.7,707.1,150.5,707.1,154.1L707.1,154.1z"/>
	</g>
	<g>
		<g>
			<path class="st11" d="M650.8,280.4c-8.4-1.3-15.4-4.7-22.4-12.9l11.5-12.2c6.7,7,14.4,8.5,20.4,8.8c6.6,0.2,11.2-1.9,11.3-5.8
				c0.1-3.5-3.8-5.9-11.6-6.9c-15.4-2-28.6-6.4-27.9-24c0.5-11.9,10-18.1,21.5-19.8l0.3-9.2l17,0.6l-0.3,9
				c6.8,1.3,12.7,3.9,18.1,8.5l-10.4,12.2c-4.7-3.8-10.2-5.2-16.4-5.5c-4.8-0.2-9.6,1.2-9.8,4.9c-0.2,4.8,4.5,5.7,11.5,6.7
				c14,2,28.4,8.3,27.8,24.5c-0.5,13.2-11.1,19.8-23.6,21.4l0.1,0l-0.4,9.8l-17-0.6L650.8,280.4z"/>
		</g>
	</g>
</g>
<linearGradient id="SVGID_12_" gradientUnits="userSpaceOnUse" x1="77.2338" y1="178.4407" x2="716.838" y2="178.4407">
	<stop  offset="0" style="stop-color:#FFFFFF"/>
	<stop  offset="1" style="stop-color:#97CBEE"/>
</linearGradient>
<path class="st12" d="M77.3,333.6c-10,2.8,639.5,0,639.5,0s-93.8-19.2-78.7-57.6s43.5-162.6-46.5-154.7s-185.8,7.5-215-38.6
	s-184.8-102-227.9-14.9S208.5,296.3,77.3,333.6z"/>
<g>
	<linearGradient id="SVGID_13_" gradientUnits="userSpaceOnUse" x1="397.1573" y1="296.5339" x2="479.0517" y2="296.5339">
		<stop  offset="0" style="stop-color:#FFFFFF"/>
		<stop  offset="1" style="stop-color:#97CBEE"/>
	</linearGradient>
	<path class="st13" d="M478.1,314.6c0,0-22.4-47.7-23.9-48.6c0,0-13.2-8.5-15.9-10.1c-0.1-0.1-0.1-0.2-0.2-0.2c0,0,0,0-0.1,0
		c0,0,0,0-0.1,0c-0.1,0-0.1,0-0.2,0.2C435.2,257.5,422,266,422,266c-1.5,1-23.9,48.6-23.9,48.6s-8,19.1,22.4,21.8
		c9.4,0.8,14.7,1,17.6,0.9c2.9,0.1,8.2-0.1,17.6-0.9C486.1,333.7,478.1,314.6,478.1,314.6z"/>
	<linearGradient id="SVGID_14_" gradientUnits="userSpaceOnUse" x1="399.6835" y1="299.8656" x2="479.1945" y2="299.8656">
		<stop  offset="0" style="stop-color:#1D76BB"/>
		<stop  offset="1" style="stop-color:#D1E5F6"/>
	</linearGradient>
	<path class="st14" d="M478.2,314.5c0,0-22.4-47.7-23.9-48.6c0,0-2.4-1.5-5.3-3.4c4.8,8.8,22.8,46.9,22.8,46.9s8,19.1-22.4,21.8
		c-9.4,0.8-14.7,1-17.6,0.9c-2.9,0.1-8.2-0.1-17.6-0.9c-6.4-0.6-11.1-1.8-14.6-3.5c2.9,4,8.9,7.7,21,8.7c9.4,0.8,14.7,1,17.6,0.9
		c2.9,0.1,8.2-0.1,17.6-0.9C486.3,333.7,478.2,314.5,478.2,314.5z"/>
	<linearGradient id="SVGID_15_" gradientUnits="userSpaceOnUse" x1="416.8089" y1="253.8893" x2="460.7656" y2="253.8893">
		<stop  offset="0" style="stop-color:#FFFFFF"/>
		<stop  offset="1" style="stop-color:#97CBEE"/>
	</linearGradient>
	<path class="st15" d="M460.8,241.2c-3.7,0-3.7,6.5-7.3,6.5c-3.7,0-3.7-6.5-7.3-6.5c-3.7,0-3.7,6.5-7.3,6.5c-3.7,0-3.7-6.5-7.3-6.5
		c-3.7,0-3.7,6.5-7.3,6.5c-3.7,0-3.7-6.5-7.3-6.5l6.4,25.3l30.8-0.1L460.8,241.2z"/>
	<g>
		<linearGradient id="SVGID_16_" gradientUnits="userSpaceOnUse" x1="444.7888" y1="244.036" x2="450.9492" y2="244.036">
			<stop  offset="0" style="stop-color:#1D76BB"/>
			<stop  offset="1" style="stop-color:#D1E5F6"/>
		</linearGradient>
		<path class="st16" d="M449.5,246.7c0.6,0,1.1-0.2,1.5-0.4c-1.4-1.9-2.2-4.9-4.7-4.9c-0.6,0-1.1,0.2-1.5,0.4
			C446.2,243.7,447,246.7,449.5,246.7z"/>
		<linearGradient id="SVGID_17_" gradientUnits="userSpaceOnUse" x1="430.1373" y1="244.0473" x2="436.2955" y2="244.0473">
			<stop  offset="0" style="stop-color:#1D76BB"/>
			<stop  offset="1" style="stop-color:#D1E5F6"/>
		</linearGradient>
		<path class="st17" d="M434.8,246.7c0.6,0,1.1-0.2,1.5-0.4c-1.4-1.9-2.2-4.9-4.7-4.9c-0.6,0-1.1,0.2-1.5,0.4
			C431.5,243.7,432.3,246.7,434.8,246.7z"/>
		<linearGradient id="SVGID_18_" gradientUnits="userSpaceOnUse" x1="416.9743" y1="244.059" x2="421.6466" y2="244.059">
			<stop  offset="0" style="stop-color:#1D76BB"/>
			<stop  offset="1" style="stop-color:#D1E5F6"/>
		</linearGradient>
		<path class="st18" d="M420.2,246.7c0.6,0,1.1-0.2,1.5-0.4c-1.4-1.9-2.2-4.9-4.7-4.9l1.1,4.4C418.6,246.4,419.3,246.7,420.2,246.7z
			"/>
		<linearGradient id="SVGID_19_" gradientUnits="userSpaceOnUse" x1="423.043" y1="254.0546" x2="460.9308" y2="254.0546">
			<stop  offset="0" style="stop-color:#1D76BB"/>
			<stop  offset="1" style="stop-color:#D1E5F6"/>
		</linearGradient>
		<path class="st19" d="M454.8,247.6l-4.8,17.9l-26.9,0.1l0.3,1.2l30.8-0.1l6.8-25.3C457.7,241.4,457.3,246.3,454.8,247.6z"/>
	</g>
	<g>
		<linearGradient id="SVGID_20_" gradientUnits="userSpaceOnUse" x1="465.2471" y1="272.2227" x2="449.6873" y2="263.5092">
			<stop  offset="0" style="stop-color:#1D76BB"/>
			<stop  offset="1" style="stop-color:#D1E5F6"/>
		</linearGradient>
		<path class="st20" d="M454.5,263.8c0,0,8.5,5.1,8.3,5.3c-0.3,0.2-2.3,2.6-2.6,2.6c-0.3,0-6.9-5.1-7.2-5.1
			C452.7,266.6,454.6,263.6,454.5,263.8z"/>
		<linearGradient id="SVGID_21_" gradientUnits="userSpaceOnUse" x1="447.5446" y1="260.4167" x2="459.5981" y2="284.6846">
			<stop  offset="0" style="stop-color:#1D76BB"/>
			<stop  offset="1" style="stop-color:#D1E5F6"/>
		</linearGradient>
		<path class="st21" d="M449.3,266.5c0,0,6.4,17.3,6.7,17.4c0.2,0.1,4.9-0.2,4.9-0.2l-7.5-18.2L449.3,266.5z"/>
		<linearGradient id="SVGID_22_" gradientUnits="userSpaceOnUse" x1="415.937" y1="271.776" x2="461.2585" y2="258.1153">
			<stop  offset="0" style="stop-color:#1D76BB"/>
			<stop  offset="1" style="stop-color:#D1E5F6"/>
		</linearGradient>
		<path class="st22" d="M455.4,265c0,1.4-1.1,2.6-2.6,2.6h-28.6c-1.4,0-2.6-1.1-2.6-2.6l0,0c0-1.4,1.1-2.6,2.6-2.6h28.6
			C454.2,262.4,455.4,263.6,455.4,265L455.4,265z"/>
		<linearGradient id="SVGID_23_" gradientUnits="userSpaceOnUse" x1="459.1331" y1="256.9055" x2="424.0974" y2="265.2626">
			<stop  offset="0" style="stop-color:#1D76BB"/>
			<stop  offset="1" style="stop-color:#D1E5F6"/>
		</linearGradient>
		<path class="st23" d="M456.6,261.9c0,1.4-1.1,2.6-2.6,2.6h-31.9c-1.4,0-2.6-1.1-2.6-2.6l0,0c0-1.4,1.1-2.6,2.6-2.6h31.9
			C455.5,259.4,456.6,260.5,456.6,261.9L456.6,261.9z"/>
	</g>
	<g>
		<g>
			<path class="st11" d="M434.5,312.9c-3.4-0.5-6.2-1.9-9.1-5.2l4.6-4.9c2.7,2.8,5.8,3.4,8.2,3.5c2.6,0.1,4.5-0.8,4.6-2.4
				c0.1-1.4-1.5-2.4-4.7-2.8c-6.2-0.8-11.5-2.6-11.2-9.7c0.2-4.8,4-7.3,8.7-8l0.1-3.7l6.8,0.3l-0.1,3.6c2.8,0.5,5.1,1.6,7.3,3.4
				l-4.2,4.9c-1.9-1.5-4.1-2.1-6.6-2.2c-2-0.1-3.9,0.5-3.9,2c-0.1,2,1.8,2.3,4.6,2.7c5.6,0.8,11.4,3.3,11.2,9.9
				c-0.2,5.3-4.5,8-9.5,8.6l0,0l-0.2,3.9l-6.8-0.3L434.5,312.9z"/>
		</g>
	</g>
</g>
<g>
	<g>
		<path class="st11" d="M353.5,221.9H229.2V103.1h124.3V221.9z M231.9,219.2h118.8V105.9H231.9V219.2z"/>
	</g>
	<g>
		<path class="st11" d="M353.5,221.9H229.2v-96.1h124.3V221.9z M231.9,219.2h118.8v-90.6H231.9V219.2z"/>
	</g>
	<g>
		<path class="st11" d="M353.5,221.9H229.2v-74h124.3V221.9z M231.9,219.2h118.8v-68.5H231.9V219.2z"/>
	</g>
	<g>
		<path class="st11" d="M353.5,221.9H229.2v-50.8h124.3V221.9z M231.9,219.2h118.8v-45.3H231.9V219.2z"/>
	</g>
	<g>
		<path class="st11" d="M353.5,221.9H229.2v-26.5h124.3V221.9z M231.9,220.3h118.8V197H231.9V220.3z"/>
	</g>
	<g>
		<path class="st11" d="M353.5,221.9H254V103.1h99.5V221.9z M256.8,219.2h93.9V105.9h-93.9V219.2z"/>
	</g>
	<g>
		<path class="st11" d="M353.5,221.9h-75.7V103.1h75.7V221.9z M280.6,219.2h70.2V105.9h-70.2V219.2z"/>
	</g>
	<g>
		<path class="st11" d="M353.5,221.9h-50.8V103.1h50.8V221.9z M305.4,219.2h45.3V105.9h-45.3V219.2z"/>
	</g>
	<g>
		<path class="st11" d="M353.5,221.9h-26.2V104.4h26.2V221.9z M330,219.2h20.7v-112H330V219.2z"/>
	</g>
</g>
<g>
	<g>
		
			<linearGradient id="SVGID_24_" gradientUnits="userSpaceOnUse" x1="2778.7937" y1="138.7622" x2="2848.6746" y2="138.7622" gradientTransform="matrix(-1 0 0 1 3356.5703 0)">
			<stop  offset="0" style="stop-color:#FFFFFF"/>
			<stop  offset="1" style="stop-color:#97CBEE"/>
		</linearGradient>
		<path class="st24" d="M512.7,176.6c0,0-7.4-12.6-3.9-19.9c3.6-7.3,11.1-5.9,11.5-19.5c0.4-13.7-3.2-15.6,0.4-22.4
			c3.6-6.8,15.5-17.2,31.4-14.9c15.9,2.3,25.6,26.8,25.6,26.8s-13.5-16.2-20.7-10.9c-7.2,5.3-6.5,6.2-6.4,11.5
			c0.1,5.3-8.3,13.8-13.5,17.8c-5.1,4.1-0.9,7-1.6,18.3C534.9,174.8,522.3,180.7,512.7,176.6z"/>
	</g>
	<g>
		
			<linearGradient id="SVGID_25_" gradientUnits="userSpaceOnUse" x1="2856.592" y1="120.5973" x2="2907.6597" y2="120.5973" gradientTransform="matrix(-1 0 0 1 3356.5703 0)">
			<stop  offset="0" style="stop-color:#1D76BB"/>
			<stop  offset="1" style="stop-color:#D1E5F6"/>
		</linearGradient>
		<path class="st25" d="M499.2,172.8c0,0-0.9-10.4,0.4-23.1c1.3-12.6-0.1-13.6-7.5-26c-7.4-12.4-4.7-18.3-9.1-27.9
			c-4.5-9.6-2.5-6.9-11.5-14.3c-9-7.4-19.3-6.2-22.5-16.2c0,0,3.2,20.8,6.4,33.7c3.2,13,3.8,18.6,10.8,24.3c7,5.8,9.1,8.9,10.9,23.3
			c1.8,14.4,12.6,26.6,16.3,28.7C497,177.5,499.2,172.8,499.2,172.8z"/>
	</g>
	<g>
		
			<linearGradient id="SVGID_26_" gradientUnits="userSpaceOnUse" x1="2850.3606" y1="188.5932" x2="2850.3606" y2="98.5562" gradientTransform="matrix(-1 0 0 1 3356.5703 0)">
			<stop  offset="0" style="stop-color:#FFFFFF"/>
			<stop  offset="1" style="stop-color:#97CBEE"/>
		</linearGradient>
		<path class="st26" d="M496.5,170.3l-10.9-35.2c0,0-4.4-17.3-2.5-21.5c2-4.1,11.9-17.4,13.5-23.3c1.6-5.9,1-13.3,0.7-22.1
			c-0.4-8.8,8.5-29.8,8.8-32.6c0.4-2.9,1.8,20.7,6.8,29c5,8.3,10.8,9.5,8.9,18.8c-1.9,9.3,5,17.7,6.3,24.4
			c1.4,6.7,3.5,19.8-2.9,36.6c-6.4,16.7-12.8,35.9-19.8,38.3C498.6,185,496.7,173.6,496.5,170.3z"/>
	</g>
	<g>
		<path class="st27" d="M504.1,171.8c0-0.1,0.1-6.8,1.3-12.9c0.8-4.1,1.7-14,2.5-23.6c0.5-5.2,0.9-10.6,1.4-15
			c0.6-5.6,1-8.8,1.4-11.9c0.5-3.9,1-7.5,1.7-15.3c1.3-14.2-6.3-26.1-6.6-26.6l-1.1,0.7c0.1,0.1,7.7,12,6.4,25.7
			c-0.7,7.8-1.2,11.4-1.7,15.3c-0.4,3.1-0.9,6.3-1.4,11.9c-0.5,4.4-0.9,9.8-1.4,15c-0.8,9.6-1.7,19.5-2.5,23.5
			c-1.2,6.2-1.3,13.1-1.3,13.2L504.1,171.8z"/>
	</g>
	
		<linearGradient id="SVGID_27_" gradientUnits="userSpaceOnUse" x1="2848.9041" y1="209.5958" x2="2852.074" y2="152.0849" gradientTransform="matrix(-1 0 0 1 3356.5703 0)">
		<stop  offset="0" style="stop-color:#1D76BB"/>
		<stop  offset="1" style="stop-color:#D1E5F6"/>
	</linearGradient>
	<rect x="478.7" y="173.6" class="st28" width="54.6" height="9.6"/>
</g>
<g>
	<g>
		
			<linearGradient id="SVGID_28_" gradientUnits="userSpaceOnUse" x1="208.5381" y1="404.014" x2="434.1959" y2="404.014" gradientTransform="matrix(0.9959 -9.080000e-02 9.080000e-02 0.9959 -252.2294 -157.5972)">
			<stop  offset="0" style="stop-color:#FFFFFF"/>
			<stop  offset="1" style="stop-color:#97CBEE"/>
		</linearGradient>
		<path class="st29" d="M268.9,200.6c5.7,62.1-40.1,117-102.1,122.6c-62.1,5.7-117-40.1-122.6-102.1c-5.7-62.1,40.1-117,102.1-122.6
			C208.4,92.8,263.3,138.5,268.9,200.6z"/>
		<linearGradient id="SVGID_29_" gradientUnits="userSpaceOnUse" x1="246.2319" y1="93.597" x2="176.9502" y2="184.1961">
			<stop  offset="0" style="stop-color:#FFFFFF"/>
			<stop  offset="1" style="stop-color:#97CBEE"/>
		</linearGradient>
		<path class="st30" d="M250.6,202.3c4.7,52-33.5,97.9-85.5,102.6c-51.9,4.7-97.9-33.5-102.6-85.5c-4.7-52,33.5-97.9,85.5-102.6
			C200,112,245.9,150.3,250.6,202.3z"/>
		<g>
			<path class="st11" d="M150.1,258.5c-11-0.3-20.5-3.5-30.9-12.8l12.7-17.5c9.7,7.9,19.9,8.5,27.5,7.8c8.4-0.8,14-4.3,13.5-9.3
				c-0.4-4.5-5.9-6.9-15.9-6.9c-20,0-37.6-3.5-39.7-26.1c-1.4-15.3,9.8-24.8,24.2-28.9l-1.1-11.8l21.8-2l1.1,11.5
				c8.9,0.5,16.9,2.9,24.5,7.8l-11.2,17.4c-6.7-4.1-13.9-5-21.8-4.3c-6.2,0.6-12.1,3.1-11.7,7.9c0.6,6.2,6.7,6.6,15.8,6.7
				c18.2,0.3,37.7,5.9,39.6,26.7c1.6,17-10.9,27.2-26.7,31.3l0.1,0l1.1,12.6l-21.8,2L150.1,258.5z"/>
		</g>
	</g>
</g>
<linearGradient id="SVGID_30_" gradientUnits="userSpaceOnUse" x1="255.0296" y1="182.6048" x2="661.1387" y2="182.6048">
	<stop  offset="0" style="stop-color:#F15F5E"/>
	<stop  offset="1" style="stop-color:#F6895C"/>
</linearGradient>
<polygon class="st31" points="255,329.8 357.5,173.3 514.2,173.3 579.8,70.1 556.5,53.8 641.1,35.4 661.1,120.5 633.5,104.3 
	554.9,225.2 398.7,225.2 335.8,329.8 "/>
<g>
	<g>
		<path class="st32" d="M714.8,186.4c-8.1-13.7-21.1-21.7-35.7-27.2c3.5-5.4,7-10.7,10.6-16.1c15.4,5.2,29.1,13.3,38.1,27.2
			C723.5,175.7,719.2,181,714.8,186.4z"/>
		<path class="st11" d="M715.1,184.4c-8.6-13.6-21.9-21.4-36.8-26.7c3.5-5.4,7-10.7,10.6-16.1c15.7,5,29.6,12.9,39.1,26.6
			C723.7,173.7,719.4,179.1,715.1,184.4z"/>
		
			<linearGradient id="SVGID_31_" gradientUnits="userSpaceOnUse" x1="340.5436" y1="549.392" x2="384.0384" y2="549.392" gradientTransform="matrix(0.814 0.581 -0.581 0.814 739.1179 -488.6563)">
			<stop  offset="0.2906" style="stop-color:#8BC53F"/>
			<stop  offset="0.4158" style="stop-color:#78BE40"/>
			<stop  offset="0.669" style="stop-color:#48AD42"/>
			<stop  offset="1" style="stop-color:#009345"/>
		</linearGradient>
		<path class="st33" d="M722.8,164.4c-7.5-8.4-16.4-14-26.7-18.4c-2.4-1-3.6-1.4-6.1-2.2c-1.2,1.8-1.8,2.7-2.9,4.4
			c-1.2,1.9-1.8,2.8-3.1,4.6c-1.1,1.7-1.7,2.5-2.7,4.2c2.5,0.9,3.7,1.4,6.1,2.4c9.8,4.5,18.2,10.1,25.2,18.4
			c1.2,1.5,1.8,2.3,2.8,3.9c1.4-1.7,2-2.6,3.4-4.3c1.4-1.7,2.1-2.6,3.5-4.4c1.4-1.8,2.1-2.7,3.6-4.6
			C724.7,166.8,724.1,166,722.8,164.4z M718.2,175.7C718.1,175.6,718.1,175.6,718.2,175.7c-1.2-1.7-3.4-1.5-4.7,0.2
			c0,0,0,0.1-0.1,0.1c-6.9-7.9-15.1-13.4-24.6-17.8c0,0,0,0,0.1-0.1c1.2-1.8,0.3-4-2.1-4.9c-0.1-0.1-0.3-0.1-0.4-0.1
			c1-1.4,1.4-2.2,2.4-3.6c0.1,0.1,0.2,0.1,0.4,0.1c2.3,0.8,5.1,0.4,6.5-1.6c0-0.1,0.1-0.1,0.1-0.2c9.8,4.3,18.4,9.8,25.6,17.8
			c0,0.1-0.1,0.1-0.1,0.2c-1.4,1.8-1.4,4.6-0.3,6.2c0,0,0.1,0.1,0.1,0.1C719.8,173.5,719.3,174.2,718.2,175.7z"/>
		
			<linearGradient id="SVGID_32_" gradientUnits="userSpaceOnUse" x1="878.0909" y1="1054.9746" x2="886.469" y2="1054.9746" gradientTransform="matrix(0.4211 0.907 -0.907 0.4211 1291.3267 -1084.1218)">
			<stop  offset="0.2906" style="stop-color:#8BC53F"/>
			<stop  offset="0.4158" style="stop-color:#78BE40"/>
			<stop  offset="0.669" style="stop-color:#48AD42"/>
			<stop  offset="1" style="stop-color:#009345"/>
		</linearGradient>
		<path class="st34" d="M709.3,162.8c-1.4,1.9-3.8,2.2-5.7,0.9c-1.9-1.3-2.5-3.8-1.2-5.7c1.3-1.9,4.1-2.4,6-1.1
			C710.4,158.2,710.7,160.9,709.3,162.8z"/>
	</g>
</g>
<g>
	<g>
		<path class="st32" d="M67,207c21-35.4,54.5-56.1,92.4-70.2c-9.1-13.9-18.2-27.7-27.4-41.5c-39.9,13.5-75.1,34.4-98.3,70.3
			C44.7,179.4,55.8,193.2,67,207z"/>
		<path class="st11" d="M66.4,202c22.2-35.1,56.5-55.4,95-69c-9.1-13.9-18.2-27.7-27.3-41.5c-40.4,12.9-76.5,33.3-100.9,68.8
			C44.2,174.2,55.2,188.2,66.4,202z"/>
		
			<linearGradient id="SVGID_33_" gradientUnits="userSpaceOnUse" x1="-99.4147" y1="830.4915" x2="12.9673" y2="830.4915" gradientTransform="matrix(-0.814 0.581 0.581 0.814 -450.6868 -488.6563)">
			<stop  offset="0.2906" style="stop-color:#8BC53F"/>
			<stop  offset="0.4158" style="stop-color:#78BE40"/>
			<stop  offset="0.669" style="stop-color:#48AD42"/>
			<stop  offset="1" style="stop-color:#009345"/>
		</linearGradient>
		<path class="st35" d="M38.6,160.6c3.7,4.8,5.6,7.1,9.2,11.8c3.6,4.6,5.4,6.9,9,11.4c3.6,4.5,5.3,6.7,8.8,11.1
			c2.7-4.2,4.1-6.2,7.3-10.1c18.1-21.3,39.9-35.9,65.2-47.5c6.1-2.6,9.2-3.9,15.7-6.2c-2.8-4.3-4.2-6.4-7.1-10.8
			c-3.1-4.7-4.7-7.1-7.9-12c-3-4.5-4.5-6.8-7.6-11.4c-6.6,2.1-9.7,3.3-15.9,5.8c-26.5,11.3-49.6,26-68.9,47.5
			C43.1,154.3,41.5,156.4,38.6,160.6z M51.1,170c0.1-0.1,0.2-0.2,0.2-0.3c3.1-4.2,3-11.3-0.7-16.1c-0.1-0.2-0.2-0.3-0.4-0.4
			c18.7-20.6,40.8-34.8,66.2-46c0.1,0.2,0.2,0.3,0.3,0.5c3.7,5.1,10.9,6.3,16.8,4.1c0.3-0.1,0.6-0.2,0.9-0.4
			c2.5,3.8,3.8,5.7,6.2,9.4c-0.4,0.1-0.8,0.2-1.1,0.4c-6.2,2.3-8.4,8.2-5.4,12.7c0,0.1,0.1,0.1,0.1,0.2
			c-24.5,11.4-45.8,25.6-63.6,46.1c0-0.1-0.1-0.1-0.1-0.2c-3.5-4.5-9.1-5-12.1-0.8c0,0.1-0.1,0.1-0.1,0.2
			C55.5,175.7,54,173.8,51.1,170z"/>
		
			<linearGradient id="SVGID_34_" gradientUnits="userSpaceOnUse" x1="639.1531" y1="1506.5457" x2="660.8002" y2="1506.5457" gradientTransform="matrix(-0.4211 0.907 0.907 0.4211 -1002.8956 -1084.1218)">
			<stop  offset="0.2906" style="stop-color:#8BC53F"/>
			<stop  offset="0.4158" style="stop-color:#78BE40"/>
			<stop  offset="0.669" style="stop-color:#48AD42"/>
			<stop  offset="1" style="stop-color:#009345"/>
		</linearGradient>
		<path class="st36" d="M81.2,146.2c3.5,4.9,9.9,5.8,14.8,2.4c4.9-3.4,6.4-9.9,3.1-14.8c-3.4-4.9-10.5-6.3-15.5-2.9
			C78.6,134.4,77.7,141.3,81.2,146.2z"/>
	</g>
</g>
<g>
	<path class="st37" d="M700.4,298.9c0,0.9,1.7,2.3,3.1,2.3h68.7c1.5,0,2.1-1.5,2.1-2.3v-91.4c0-0.9-0.6-1.7-2.1-1.7h-68.7
		c-1.5,0-3.1,0.8-3.1,1.7V298.9z"/>
	<linearGradient id="SVGID_35_" gradientUnits="userSpaceOnUse" x1="697.5361" y1="248.5744" x2="771.4157" y2="248.5744">
		<stop  offset="1.020410e-02" style="stop-color:#9B658F"/>
		<stop  offset="1" style="stop-color:#97CBEE"/>
	</linearGradient>
	<path class="st38" d="M697.5,294.7c0,0.9,0.9,0.7,2.4,0.7h68.7c1.5,0,2.8,0.1,2.8-0.7v-91.4c0-0.9-1.4-1.6-2.8-1.6h-68.7
		c-1.5,0-2.4,0.7-2.4,1.6V294.7z"/>
	<path class="st11" d="M765.6,209.9c0-0.8-0.7-1.2-1.6-1.2h-59.2c-0.9,0-1.5,0.4-1.5,1.2v13.4c0,0.8,0.6,1.1,1.5,1.1H764
		c0.9,0,1.6-0.4,1.6-1.1V209.9z"/>
	<g class="st39">
		<g>
			<path class="st40" d="M764.4,232.9c0-0.8-0.9-1.5-1.8-1.5h-13.8c-0.9,0-1.7,0.7-1.7,1.5v7c0,0.8,0.9,1.5,1.7,1.5h13.8
				c0.9,0,1.8-0.7,1.8-1.5V232.9z"/>
			<path class="st40" d="M726,239.5c0,0.8,0.6,0.6,1.4,0.6h13.3c0.9,0,1,0.2,1-0.6v-7.2c0-0.8-0.1-0.9-1-0.9h-13.3
				c-0.9,0-1.4,0.1-1.4,0.9V239.5z"/>
			<path class="st40" d="M721.9,232.9c0-0.8-0.7-1.5-1.6-1.5h-13.8c-0.9,0-1.9,0.7-1.9,1.5v7c0,0.8,1.1,1.5,1.9,1.5h13.8
				c0.9,0,1.6-0.7,1.6-1.5V232.9z"/>
		</g>
	</g>
	<g class="st39">
		<g>
			<g>
				<g>
					<path class="st40" d="M764.4,246.7c0-0.8-0.9-0.8-1.8-0.8h-13.8c-0.9,0-1.7,0-1.7,0.8v7c0,0.8,0.9,2.1,1.7,2.1h13.8
						c0.9,0,1.8-1.3,1.8-2.1V246.7z"/>
					<path class="st40" d="M742.9,246.7c0-0.8-0.6-0.8-1.5-0.8h-13.8c-0.9,0-1.6,0-1.6,0.8v7c0,0.8,0.8,2.1,1.6,2.1h13.8
						c0.9,0,1.5-1.3,1.5-2.1V246.7z"/>
					<path class="st40" d="M721.9,246.7c0-0.8-0.7-0.8-1.6-0.8h-13.8c-0.9,0-1.9,0-1.9,0.8v7c0,0.8,1.1,2.1,1.9,2.1h13.8
						c0.9,0,1.6-1.3,1.6-2.1V246.7z"/>
				</g>
			</g>
			<path class="st40" d="M764.4,261c0-0.8-0.8-1.1-1.7-1.1h-13.4c-0.9,0-2.2,0.3-2.2,1.1v7.5c0,0.8,1.3,1.3,2.2,1.3h13.4
				c0.9,0,1.7-0.5,1.7-1.3V261z"/>
			<path class="st40" d="M742.9,261c0-0.8-0.9-1.1-1.7-1.1h-13.7c-0.8,0-1.6,0.3-1.6,1.1v7.5c0,0.8,0.7,1.3,1.6,1.3h13.7
				c0.8,0,1.7-0.5,1.7-1.3V261z"/>
			<path class="st40" d="M764.4,275.3c0-0.8-0.8-0.9-1.7-0.9h-13.4c-0.9,0-2.2,0.1-2.2,0.9v7.5c0,0.8,1.3,1.4,2.2,1.4h13.4
				c0.9,0,1.7-0.7,1.7-1.4V275.3z"/>
			<path class="st40" d="M741.7,275.8c0-0.7-0.2-0.2-1-0.2h-13.3c-0.7,0-1.4-0.5-1.4,0.2v7.2c0,0.7,0.7,1.3,1.4,1.3h13.3
				c0.7,0,1-0.6,1-1.3V275.8z"/>
		</g>
	</g>
	<linearGradient id="SVGID_36_" gradientUnits="userSpaceOnUse" x1="704.5527" y1="272.0972" x2="720.2366" y2="272.0972">
		<stop  offset="0" style="stop-color:#F15F5E"/>
		<stop  offset="1" style="stop-color:#F6895C"/>
	</linearGradient>
	<path class="st41" d="M705.8,259.9h13.3c0.9,0,1.1,0.4,1.1,1.2v5.8v1.4v14.4c0,0.8-0.3,1.6-1.1,1.6h-13.3c-0.9,0-1.3-0.8-1.3-1.6
		v-14.4v-1.4v-5.8C704.6,260.3,705,259.9,705.8,259.9z"/>
</g>
<g>
	<linearGradient id="SVGID_37_" gradientUnits="userSpaceOnUse" x1="139.1712" y1="261.4136" x2="291.2497" y2="261.4136">
		<stop  offset="0" style="stop-color:#282560"/>
		<stop  offset="1" style="stop-color:#18052D"/>
	</linearGradient>
	<path class="st42" d="M289.5,295c0,0-41.7-88.5-44.4-90.3c0,0-24.4-15.8-29.4-18.7c-0.1-0.3-0.2-0.4-0.3-0.3c0,0-0.1,0-0.1,0.1
		c0,0-0.1,0-0.1-0.1c-0.1-0.1-0.2,0-0.3,0.3c-5,2.9-29.4,18.7-29.4,18.7c-2.7,1.8-44.4,90.3-44.4,90.3s-14.9,35.5,41.7,40.4
		c17.5,1.5,27.3,1.9,32.6,1.8c5.3,0.2,15.2-0.2,32.6-1.8C304.4,330.5,289.5,295,289.5,295z"/>
	<path class="st32" d="M288.7,294.8c0,0-41.7-88.5-44.4-90.3c0,0-4.4-2.9-9.9-6.4c9,16.3,42.3,87,42.3,87s14.9,35.5-41.7,40.4
		c-17.4,1.5-27.3,1.9-32.6,1.8c-5.3,0.2-15.2-0.2-32.6-1.8c-11.9-1-20.7-3.4-27-6.6c5.3,7.5,16.5,14.3,39,16.2
		c17.5,1.5,27.3,1.9,32.6,1.8c5.3,0.2,15.2-0.2,32.6-1.8C303.6,330.4,288.7,294.8,288.7,294.8z"/>
	<linearGradient id="SVGID_38_" gradientUnits="userSpaceOnUse" x1="174.6321" y1="182.2223" x2="256.26" y2="182.2223">
		<stop  offset="0" style="stop-color:#282560"/>
		<stop  offset="1" style="stop-color:#18052D"/>
	</linearGradient>
	<path class="st43" d="M256.3,158.7c-6.8,0-6.8,12-13.6,12c-6.8,0-6.8-12-13.6-12c-6.8,0-6.8,12-13.6,12c-6.8,0-6.8-12-13.6-12
		c-6.8,0-6.8,12-13.6,12c-6.8,0-6.8-12-13.6-12l11.8,47.1l57.1-0.2L256.3,158.7z"/>
	<g>
		<path class="st32" d="M235.3,168.9c1.1,0,2-0.3,2.8-0.8c-2.6-3.6-4.1-9.1-8.7-9.1c-1.1,0-2,0.3-2.8,0.8
			C229.2,163.3,230.7,168.9,235.3,168.9z"/>
		<path class="st32" d="M208.1,168.9c1.1,0,2-0.3,2.8-0.8c-2.6-3.6-4.1-9.1-8.7-9.1c-1.1,0-2,0.3-2.8,0.8
			C202,163.4,203.5,168.9,208.1,168.9z"/>
		<path class="st32" d="M180.9,168.9c1.1,0,2-0.3,2.8-0.8c-2.6-3.6-4.1-9.1-8.7-9.1l2,8.2C178,168.2,179.2,168.9,180.9,168.9z"/>
		<path class="st32" d="M245.2,170.5l-9,33.2l-50,0.2l0.5,2.2l57.1-0.2l12.7-46.9C250.6,159,249.9,168.2,245.2,170.5z"/>
	</g>
	<g>
		<linearGradient id="SVGID_39_" gradientUnits="userSpaceOnUse" x1="264.5822" y1="216.2675" x2="235.6874" y2="200.0864">
			<stop  offset="0.2957" style="stop-color:#FDB73F"/>
			<stop  offset="0.6822" style="stop-color:#F9A52F"/>
			<stop  offset="1" style="stop-color:#F6921E"/>
		</linearGradient>
		<path class="st44" d="M244.6,200.7c0,0,15.9,9.5,15.3,9.8c-0.6,0.3-4.3,4.7-4.9,4.7c-0.6,0-12.9-9.5-13.3-9.5
			C241.2,205.8,244.8,200.3,244.6,200.7z"/>
		<linearGradient id="SVGID_40_" gradientUnits="userSpaceOnUse" x1="243.892" y1="239.1799" x2="247.1668" y2="206.8172">
			<stop  offset="0.2957" style="stop-color:#FDB73F"/>
			<stop  offset="0.6822" style="stop-color:#F9A52F"/>
			<stop  offset="1" style="stop-color:#F6921E"/>
		</linearGradient>
		<path class="st45" d="M234.9,205.6c0,0,12,32.2,12.4,32.3c0.5,0.2,9-0.3,9-0.3l-13.9-33.7L234.9,205.6z"/>
		<linearGradient id="SVGID_41_" gradientUnits="userSpaceOnUse" x1="249.7785" y1="201.8277" x2="201.8124" y2="203.1761">
			<stop  offset="0.2957" style="stop-color:#FDB73F"/>
			<stop  offset="0.6822" style="stop-color:#F9A52F"/>
			<stop  offset="1" style="stop-color:#F6921E"/>
		</linearGradient>
		<path class="st46" d="M246.3,202.8c0,2.6-2.1,4.7-4.8,4.7h-53.2c-2.6,0-4.7-2.1-4.7-4.7l0,0c0-2.6,2.1-4.7,4.7-4.7h53.2
			C244.1,198.1,246.3,200.2,246.3,202.8L246.3,202.8z"/>
		<linearGradient id="SVGID_42_" gradientUnits="userSpaceOnUse" x1="180.8184" y1="197.1381" x2="249.6266" y2="197.1381">
			<stop  offset="0.2957" style="stop-color:#FDB73F"/>
			<stop  offset="0.6822" style="stop-color:#F9A52F"/>
			<stop  offset="1" style="stop-color:#F6921E"/>
		</linearGradient>
		<path class="st47" d="M249.6,197.1c0,2.6-2.1,4.7-4.8,4.7h-59.3c-2.6,0-4.7-2.1-4.7-4.7l0,0c0-2.6,2.1-4.7,4.7-4.7h59.3
			C247.5,192.4,249.6,194.5,249.6,197.1L249.6,197.1z"/>
	</g>
	<g>
		<g>
			<path class="st11" d="M207.4,291.7c-6.3-1-11.5-3.5-16.8-9.6l8.6-9.1c5,5.3,10.8,6.4,15.3,6.6c4.9,0.2,8.4-1.4,8.5-4.4
				c0.1-2.6-2.9-4.4-8.7-5.2c-11.5-1.5-21.4-4.8-20.9-18c0.3-8.9,7.5-13.6,16.1-14.8l0.3-6.9l12.7,0.5l-0.3,6.7
				c5.1,0.9,9.5,2.9,13.5,6.3l-7.8,9.2c-3.5-2.9-7.6-3.9-12.3-4.1c-3.6-0.1-7.2,0.9-7.3,3.7c-0.1,3.6,3.4,4.3,8.6,5
				c10.5,1.5,21.3,6.2,20.8,18.3c-0.4,9.9-8.3,14.8-17.7,16l0.1,0l-0.3,7.3l-12.7-0.5L207.4,291.7z"/>
		</g>
	</g>
</g>
<g>
	<g>
		
			<linearGradient id="SVGID_43_" gradientUnits="userSpaceOnUse" x1="1177.9434" y1="412.064" x2="1261.6088" y2="412.064" gradientTransform="matrix(-0.9844 -0.1759 -0.1759 0.9844 1497.0826 -96.4351)">
			<stop  offset="0.2957" style="stop-color:#FDB73F"/>
			<stop  offset="0.6822" style="stop-color:#F9A52F"/>
			<stop  offset="1" style="stop-color:#F6921E"/>
		</linearGradient>
		<path class="st48" d="M189,67.8l4.1-5c3.9-5.6,11-8.5,20.3-7.3c19,2.4,40.3,20.8,47.5,41c4.4,12.4,2.5,22.7-4,28.2l-4.8,4.2
			c-4.3,4.2-11,6.1-19.6,4.5c-19.1-3.4-39.8-21.8-46.4-41.2C182.5,81.7,183.9,73,189,67.8z"/>
		
			<linearGradient id="SVGID_44_" gradientUnits="userSpaceOnUse" x1="1173.3054" y1="404.5435" x2="1252.7039" y2="404.5435" gradientTransform="matrix(-0.9844 -0.1759 -0.1759 0.9844 1497.0826 -96.4351)">
			<stop  offset="0.2957" style="stop-color:#FDB73F"/>
			<stop  offset="0.6822" style="stop-color:#F9A52F"/>
			<stop  offset="1" style="stop-color:#F6921E"/>
		</linearGradient>
		<path class="st49" d="M197.4,84c7.2,20.2,28.5,38.6,47.5,41c19,2.4,28.6-12,21.3-32.3c-7.2-20.2-28.5-38.6-47.5-41
			C199.7,49.3,190.1,63.8,197.4,84z"/>
		<path class="st50" d="M243.7,121c0.5,0.1,1.1,0.2,1.6,0.2c7.1,0.9,12.8-0.9,16.1-4.9c4-4.9,4.4-13,1.1-22.1
			c-3.2-8.9-9.4-17.7-17.4-24.9c-8-7.1-17-11.9-25.3-13.3c-0.5-0.1-1.1-0.2-1.6-0.2c-7.1-0.9-12.8,0.9-16.1,4.9
			c-4,4.9-4.4,13-1.1,22.2c3.2,8.8,9.4,17.7,17.4,24.9C226.5,114.7,235.5,119.5,243.7,121z"/>
	</g>
	<g>
		<path class="st11" d="M244.3,113.6l-9.1-1.6l-1.8-5.3l0.1,0c-7.1-2.3-13.9-7.1-16.3-14.3c-3-8.9,3.8-10.6,11-10.1
			c3.6,0.3,6,0.3,5.1-2.3c-0.7-2-3.5-3.3-6.1-3.8c-3.3-0.6-6-0.4-8,1.1l-7.6-7.8c2.2-1.8,4.9-2.6,8.4-2.5l-1.6-4.9l9.1,1.6l1.7,5
			c6.5,2.2,12.7,6.7,14.8,13.2c3.2,9.6-3.2,10.5-11.2,9.8c-4-0.3-5.8,0.5-5.1,2.4c0.7,2.1,3.6,3.8,7.1,4.5c3.2,0.6,7.1,0.6,9.6-2.4
			l8.2,7.9c-2.5,3.6-5.7,4.6-10,4.4L244.3,113.6z"/>
	</g>
</g>
<g>
	<g>
		
			<linearGradient id="SVGID_45_" gradientUnits="userSpaceOnUse" x1="-381.6615" y1="-255.1353" x2="-285.6708" y2="-255.1353" gradientTransform="matrix(0.9474 -0.3202 0.3202 0.9474 674.4998 460.6308)">
			<stop  offset="0.2957" style="stop-color:#FDB73F"/>
			<stop  offset="0.6822" style="stop-color:#F9A52F"/>
			<stop  offset="1" style="stop-color:#F6921E"/>
		</linearGradient>
		<path class="st51" d="M320.5,335c-1,0.3-2.1,0.4-3.2,0.4l-81.9-1.6c-2.3,0-4.5-0.8-6.1-2c-1.7-1.3-2.6-3-2.5-4.7l0.2-4.5
			c0.1-2.7,2.5-5.1,5.9-6c1-0.3,2.1-0.4,3.1-0.4l81.9,1.6c2.3,0,4.5,0.8,6.1,2c1.7,1.3,2.6,3,2.5,4.7l-0.2,4.5
			C326.3,331.7,324,334.1,320.5,335z"/>
		
			<linearGradient id="SVGID_46_" gradientUnits="userSpaceOnUse" x1="-377.7149" y1="-255.1363" x2="-289.6181" y2="-255.1363" gradientTransform="matrix(0.9474 -0.3202 0.3202 0.9474 674.4998 460.6308)">
			<stop  offset="0.2957" style="stop-color:#FDB73F"/>
			<stop  offset="0.6822" style="stop-color:#F9A52F"/>
			<stop  offset="1" style="stop-color:#F6921E"/>
		</linearGradient>
		<path class="st52" d="M322.4,328.9c-0.1,1.9-2.3,3.4-4.9,3.4l-81.9-1.6c-2.7-0.1-4.8-1.7-4.7-3.6l0.2-4.5c0.1-1.9,2.3-3.4,4.9-3.4
			l81.9,1.6c2.7,0.1,4.8,1.7,4.7,3.6L322.4,328.9z"/>
		<polygon class="st50" points="310.3,331 272.1,330.2 272.4,321.1 310.6,321.9 		"/>
		<polygon class="st50" points="256.9,330.1 237,329.7 237.3,320.3 257.2,320.7 		"/>
	</g>
	<g>
		
			<linearGradient id="SVGID_47_" gradientUnits="userSpaceOnUse" x1="-364.7363" y1="-266.9892" x2="-268.746" y2="-266.9892" gradientTransform="matrix(0.9474 -0.3202 0.3202 0.9474 674.4998 460.6308)">
			<stop  offset="0.2957" style="stop-color:#FDB73F"/>
			<stop  offset="0.6822" style="stop-color:#F9A52F"/>
			<stop  offset="1" style="stop-color:#F6921E"/>
		</linearGradient>
		<path class="st53" d="M332.7,318.4c-1,0.3-2.1,0.4-3.1,0.4l-81.9-1.6c-2.3,0-4.5-0.8-6.1-2c-1.7-1.3-2.6-3-2.5-4.7l0.2-4.5
			c0.1-2.7,2.5-5.1,5.9-6c1-0.3,2.1-0.4,3.1-0.4l81.9,1.6c2.3,0,4.5,0.8,6.1,2c1.7,1.3,2.6,3,2.5,4.7l-0.2,4.5
			C338.6,315.1,336.2,317.5,332.7,318.4z"/>
		
			<linearGradient id="SVGID_48_" gradientUnits="userSpaceOnUse" x1="-360.7896" y1="-266.9887" x2="-272.692" y2="-266.9887" gradientTransform="matrix(0.9474 -0.3202 0.3202 0.9474 674.4998 460.6308)">
			<stop  offset="0.2957" style="stop-color:#FDB73F"/>
			<stop  offset="0.6822" style="stop-color:#F9A52F"/>
			<stop  offset="1" style="stop-color:#F6921E"/>
		</linearGradient>
		<path class="st54" d="M334.6,312.3c-0.1,1.9-2.3,3.4-4.9,3.4l-81.9-1.6c-2.7-0.1-4.8-1.7-4.7-3.6l0.2-4.5c0.1-1.9,2.3-3.4,4.9-3.4
			l81.9,1.6c2.7,0.1,4.8,1.7,4.7,3.6L334.6,312.3z"/>
		<polygon class="st50" points="322.6,314.4 284.3,313.6 284.6,304.4 322.9,305.2 		"/>
		<polygon class="st50" points="269.1,313.4 249.2,313 249.5,303.6 269.4,304 		"/>
	</g>
	<g>
		
			<linearGradient id="SVGID_49_" gradientUnits="userSpaceOnUse" x1="-366.6515" y1="-285.3686" x2="-270.6618" y2="-285.3686" gradientTransform="matrix(0.9474 -0.3202 0.3202 0.9474 674.4998 460.6308)">
			<stop  offset="0.2957" style="stop-color:#FDB73F"/>
			<stop  offset="0.6822" style="stop-color:#F9A52F"/>
			<stop  offset="1" style="stop-color:#F6921E"/>
		</linearGradient>
		<path class="st55" d="M325,301.6c-1,0.3-2.1,0.4-3.1,0.4l-81.9-1.6c-2.3,0-4.5-0.8-6.1-2c-1.7-1.3-2.6-3-2.5-4.7l0.2-4.5
			c0.1-2.7,2.5-5.1,5.9-6c1-0.3,2.1-0.4,3.1-0.4l81.9,1.6c2.3,0,4.5,0.7,6.1,2c1.7,1.3,2.6,3,2.5,4.7l-0.2,4.5
			C330.9,298.3,328.5,300.7,325,301.6z"/>
		
			<linearGradient id="SVGID_50_" gradientUnits="userSpaceOnUse" x1="-362.7058" y1="-285.3681" x2="-274.6076" y2="-285.3681" gradientTransform="matrix(0.9474 -0.3202 0.3202 0.9474 674.4998 460.6308)">
			<stop  offset="0.2957" style="stop-color:#FDB73F"/>
			<stop  offset="0.6822" style="stop-color:#F9A52F"/>
			<stop  offset="1" style="stop-color:#F6921E"/>
		</linearGradient>
		<path class="st56" d="M326.9,295.5c-0.1,1.9-2.3,3.4-4.9,3.4l-81.9-1.6c-2.7-0.1-4.8-1.7-4.7-3.6l0.2-4.5c0.1-1.9,2.3-3.4,4.9-3.4
			l81.9,1.6c2.7,0.1,4.8,1.7,4.7,3.6L326.9,295.5z"/>
		<polygon class="st50" points="314.9,297.6 276.6,296.8 276.9,287.6 315.2,288.4 		"/>
		<polygon class="st50" points="261.4,296.6 241.5,296.2 241.8,286.8 261.7,287.2 		"/>
	</g>
	<g>
		
			<linearGradient id="SVGID_51_" gradientUnits="userSpaceOnUse" x1="-343.1048" y1="-295.5396" x2="-247.1147" y2="-295.5396" gradientTransform="matrix(0.9474 -0.3202 0.3202 0.9474 674.4998 460.6308)">
			<stop  offset="0.2957" style="stop-color:#FDB73F"/>
			<stop  offset="0.6822" style="stop-color:#F9A52F"/>
			<stop  offset="1" style="stop-color:#F6921E"/>
		</linearGradient>
		<path class="st57" d="M344.1,284.4c-1,0.3-2.1,0.4-3.2,0.4l-81.9-1.6c-2.3,0-4.5-0.7-6.1-2c-1.7-1.3-2.6-3-2.5-4.7l0.2-4.5
			c0.1-2.7,2.5-5.1,5.9-6c1-0.3,2.1-0.4,3.2-0.4l81.9,1.6c2.3,0,4.5,0.8,6.1,2c1.7,1.3,2.6,3,2.5,4.7l-0.2,4.5
			C349.9,281.1,347.6,283.5,344.1,284.4z"/>
		
			<linearGradient id="SVGID_52_" gradientUnits="userSpaceOnUse" x1="-339.1587" y1="-295.5393" x2="-251.0613" y2="-295.5393" gradientTransform="matrix(0.9474 -0.3202 0.3202 0.9474 674.4998 460.6308)">
			<stop  offset="0.2957" style="stop-color:#FDB73F"/>
			<stop  offset="0.6822" style="stop-color:#F9A52F"/>
			<stop  offset="1" style="stop-color:#F6921E"/>
		</linearGradient>
		<path class="st58" d="M346,278.3c-0.1,1.9-2.3,3.4-4.9,3.4l-81.9-1.6c-2.7-0.1-4.8-1.7-4.7-3.6l0.2-4.5c0.1-1.9,2.3-3.4,4.9-3.4
			l81.9,1.6c2.7,0.1,4.8,1.7,4.7,3.6L346,278.3z"/>
		<polygon class="st50" points="333.9,280.4 295.6,279.6 296,270.5 334.2,271.2 		"/>
		<polygon class="st50" points="280.5,279.4 260.6,279 260.9,269.6 280.8,270 		"/>
	</g>
	<g>
		
			<linearGradient id="SVGID_53_" gradientUnits="userSpaceOnUse" x1="-352.2598" y1="-317.1609" x2="-256.2695" y2="-317.1609" gradientTransform="matrix(0.9474 -0.3202 0.3202 0.9474 674.4998 460.6308)">
			<stop  offset="0.2957" style="stop-color:#FDB73F"/>
			<stop  offset="0.6822" style="stop-color:#F9A52F"/>
			<stop  offset="1" style="stop-color:#F6921E"/>
		</linearGradient>
		<path class="st59" d="M328.5,266.8c-1,0.3-2.1,0.4-3.1,0.4l-81.9-1.6c-2.3,0-4.5-0.7-6.1-2c-1.7-1.3-2.6-3-2.5-4.7l0.2-4.5
			c0.1-2.7,2.5-5.1,5.9-6c1-0.3,2.1-0.4,3.1-0.4l81.9,1.6c2.3,0,4.5,0.7,6.1,2c1.7,1.3,2.6,3,2.5,4.7l-0.2,4.5
			C334.3,263.5,332,266,328.5,266.8z"/>
		
			<linearGradient id="SVGID_54_" gradientUnits="userSpaceOnUse" x1="-348.3129" y1="-317.1606" x2="-260.2162" y2="-317.1606" gradientTransform="matrix(0.9474 -0.3202 0.3202 0.9474 674.4998 460.6308)">
			<stop  offset="0.2957" style="stop-color:#FDB73F"/>
			<stop  offset="0.6822" style="stop-color:#F9A52F"/>
			<stop  offset="1" style="stop-color:#F6921E"/>
		</linearGradient>
		<path class="st60" d="M330.4,260.8c-0.1,1.9-2.3,3.4-4.9,3.4l-81.9-1.6c-2.7-0.1-4.8-1.7-4.7-3.6l0.2-4.5c0.1-1.9,2.3-3.4,4.9-3.4
			l81.9,1.6c2.7,0.1,4.8,1.7,4.7,3.6L330.4,260.8z"/>
		<polygon class="st50" points="318.3,262.8 280,262.1 280.4,252.9 318.6,253.7 		"/>
		<polygon class="st50" points="264.9,261.9 245,261.5 245.3,252.1 265.2,252.5 		"/>
	</g>
	<g>
		
			<linearGradient id="SVGID_55_" gradientUnits="userSpaceOnUse" x1="-333.1355" y1="-328.4288" x2="-237.1451" y2="-328.4288" gradientTransform="matrix(0.9474 -0.3202 0.3202 0.9474 674.4998 460.6308)">
			<stop  offset="0.2957" style="stop-color:#FDB73F"/>
			<stop  offset="0.6822" style="stop-color:#F9A52F"/>
			<stop  offset="1" style="stop-color:#F6921E"/>
		</linearGradient>
		<path class="st61" d="M343,250.1c-1,0.3-2.1,0.4-3.1,0.4l-81.9-1.6c-2.3,0-4.5-0.8-6.1-2c-1.7-1.3-2.6-3-2.5-4.7l0.2-4.5
			c0.1-2.7,2.5-5.1,5.9-6c1-0.3,2.1-0.4,3.2-0.4l81.9,1.6c2.3,0,4.5,0.8,6.1,2c1.7,1.3,2.6,3,2.5,4.7l-0.2,4.5
			C348.8,246.7,346.5,249.2,343,250.1z"/>
		
			<linearGradient id="SVGID_56_" gradientUnits="userSpaceOnUse" x1="-329.1892" y1="-328.4291" x2="-241.0917" y2="-328.4291" gradientTransform="matrix(0.9474 -0.3202 0.3202 0.9474 674.4998 460.6308)">
			<stop  offset="0.2957" style="stop-color:#FDB73F"/>
			<stop  offset="0.6822" style="stop-color:#F9A52F"/>
			<stop  offset="1" style="stop-color:#F6921E"/>
		</linearGradient>
		<path class="st62" d="M344.9,244c-0.1,1.9-2.3,3.4-4.9,3.4l-81.9-1.6c-2.7-0.1-4.8-1.7-4.7-3.6l0.2-4.5c0.1-1.9,2.3-3.4,4.9-3.4
			l81.9,1.6c2.7,0.1,4.8,1.7,4.7,3.6L344.9,244z"/>
		<polygon class="st50" points="332.8,246 294.6,245.3 294.9,236.1 333.1,236.9 		"/>
		<polygon class="st50" points="279.4,245.1 259.5,244.7 259.8,235.3 279.7,235.7 		"/>
	</g>
</g>
<g>
	<linearGradient id="SVGID_57_" gradientUnits="userSpaceOnUse" x1="358.5699" y1="127.1567" x2="416.1613" y2="127.1567">
		<stop  offset="0.2957" style="stop-color:#FDB73F"/>
		<stop  offset="0.6822" style="stop-color:#F9A52F"/>
		<stop  offset="1" style="stop-color:#F6921E"/>
	</linearGradient>
	<path class="st63" d="M405.4,127.5h10.7c-0.7-7.2-1.5-13.8-2.3-17.2c-1.3-6-7.6-6.7-10.7-6.7L386.9,99l-15.8,4.6
		c-3.2,0-9,0.9-10.3,6.7c-0.7,3.4-1.6,10-2.3,17.2H369c1.3,3.9,4.4,16.7-0.7,22.5l-0.9,5.3h16.7h6.3H407l-0.9-5.3
		C401,144.2,404.1,131.4,405.4,127.5z"/>
	
		<linearGradient id="SVGID_58_" gradientUnits="userSpaceOnUse" x1="4235.8896" y1="143.6671" x2="4228.3604" y2="129.4178" gradientTransform="matrix(-1 0 0 1 4593.4844 0)">
		<stop  offset="0" style="stop-color:#FFD57A"/>
		<stop  offset="0.223" style="stop-color:#FED179"/>
		<stop  offset="0.4553" style="stop-color:#FDC574"/>
		<stop  offset="0.6917" style="stop-color:#FAB06C"/>
		<stop  offset="0.9297" style="stop-color:#F79361"/>
		<stop  offset="1" style="stop-color:#F6895D"/>
	</linearGradient>
	<path class="st64" d="M356.6,143.2c0,0,1.4-10,2.3-18.3l10.5,0c-1.5,9.2-4,22.2-6.1,24"/>
	
		<linearGradient id="SVGID_59_" gradientUnits="userSpaceOnUse" x1="4664.021" y1="143.6368" x2="4656.4917" y2="129.3876" gradientTransform="matrix(1 0 0 1 -4246.9238 0)">
		<stop  offset="0" style="stop-color:#FFD57A"/>
		<stop  offset="0.223" style="stop-color:#FED179"/>
		<stop  offset="0.4553" style="stop-color:#FDC574"/>
		<stop  offset="0.6917" style="stop-color:#FAB06C"/>
		<stop  offset="0.9297" style="stop-color:#F79361"/>
		<stop  offset="1" style="stop-color:#F6895D"/>
	</linearGradient>
	<path class="st65" d="M417.9,143.2c0,0-1-9.9-1.9-18.2h-10.7c1.5,9.2,4,22.2,6.1,24"/>
	<path class="st66" d="M369.2,149.7c0,0-2.3,7-3.4,7.7c-0.6,0.4,12,6.9,23.4,7.2c9.1,0.3,17.6-5.4,17.6-5.4l-2.7-9.5"/>
	<path class="st66" d="M429.5,151.1c0,0-33.4-3.6-49,16.9l-1,3.6l20.4,2C399.8,173.7,429,158.3,429.5,151.1z"/>
	<linearGradient id="SVGID_60_" gradientUnits="userSpaceOnUse" x1="348.7466" y1="162.0229" x2="399.7888" y2="162.0229">
		<stop  offset="0" style="stop-color:#282560"/>
		<stop  offset="1" style="stop-color:#18052D"/>
	</linearGradient>
	<path class="st67" d="M348.7,150.5c0,0,34.4-3,50,17.4l1,3.6l-20.4,2C379.4,173.7,349.2,157.7,348.7,150.5z"/>
	<g>
		<path class="st68" d="M401,93.7c-0.4-0.6-0.7-1.3-0.8-2c-1.3-3.5-0.5-7.4-1.3-11c-1.6-6.4-5.7-14-13.7-12.3
			c-10.8,2.3-10.2,14.2-11.8,23c-0.1,0.6-0.5,1.2-1,1.6c1.1,0.7,2.3,1.2,3.5,1.7c1.2,0.5,2.5,0.8,3.8,1.1c1.3,0.3,2.6,0.5,3.9,0.6
			c1.3,0.1,2.6,0.2,3.9,0.1c1.6,0,3.1-0.1,4.4-0.2C395.9,95.8,398.9,94.8,401,93.7z"/>
	</g>
	<linearGradient id="SVGID_61_" gradientUnits="userSpaceOnUse" x1="387.1148" y1="109.597" x2="387.7577" y2="93.7398">
		<stop  offset="0" style="stop-color:#FFD57A"/>
		<stop  offset="0.223" style="stop-color:#FED179"/>
		<stop  offset="0.4553" style="stop-color:#FDC574"/>
		<stop  offset="0.6917" style="stop-color:#FAB06C"/>
		<stop  offset="0.9297" style="stop-color:#F79361"/>
		<stop  offset="1" style="stop-color:#F6895D"/>
	</linearGradient>
	<path class="st69" d="M397,103.2c0,0-2.6-1.6-4-3.9c-1.1-1.9-1.1-8.4-1.1-8.4h-1.8h-5.6h-1.8c0,0,0,6.5-1.1,8.4
		c-1.4,2.3-4,3.9-4,3.9s5.8,5.4,9.7,4.7C391.3,108.6,397,103.2,397,103.2z"/>
	<path class="st70" d="M392.4,91.7l-5,1.2l-5-1.2c0,0,1.6,4,4.9,4.3l0,0c0.1,0,0.1,0,0.2,0c0.1,0,0.1,0,0.2,0l0,0
		C390.8,95.7,392.4,91.7,392.4,91.7z"/>
	<linearGradient id="SVGID_62_" gradientUnits="userSpaceOnUse" x1="340.3867" y1="165.2248" x2="391.3583" y2="165.2248">
		<stop  offset="0" style="stop-color:#282560"/>
		<stop  offset="1" style="stop-color:#18052D"/>
	</linearGradient>
	<path class="st71" d="M391.4,170.2l-4.9,10.5c0,0-39.6-5.3-44.7-16.3c-5-11,4.8-15.5,7.9-14.5c3.1,1.1,41.7,19.8,41.7,19.8"/>
	<linearGradient id="SVGID_63_" gradientUnits="userSpaceOnUse" x1="387.2289" y1="175.7099" x2="418.8734" y2="175.7099">
		<stop  offset="0" style="stop-color:#FFD57A"/>
		<stop  offset="0.223" style="stop-color:#FED179"/>
		<stop  offset="0.4553" style="stop-color:#FDC574"/>
		<stop  offset="0.6917" style="stop-color:#FAB06C"/>
		<stop  offset="0.9297" style="stop-color:#F79361"/>
		<stop  offset="1" style="stop-color:#F6895D"/>
	</linearGradient>
	<path class="st72" d="M387.2,179.1c0,0,11.6,3.3,14.2,3.4c2.6,0.1,15.8-0.7,16.3-0.8c0.5-0.1,1.8-2.3,0.7-5.8
		c-1.1-3.6-2.8-7.5-3.9-7c-1.1,0.5-7.2,3.6-10.3,3.8s-15-1.7-15-1.7l-1.9,7.6"/>
	<g>
		<linearGradient id="SVGID_64_" gradientUnits="userSpaceOnUse" x1="385.1065" y1="165.2248" x2="436.0782" y2="165.2248">
			<stop  offset="0" style="stop-color:#A5769C"/>
			<stop  offset="1" style="stop-color:#7B2D8C"/>
		</linearGradient>
		<path class="st73" d="M385.1,170.2l4.9,10.5c0,0,39.6-5.3,44.7-16.3c5-11-4.8-15.5-7.9-14.5c-3.1,1.1-41.7,19.8-41.7,19.8"/>
		<linearGradient id="SVGID_65_" gradientUnits="userSpaceOnUse" x1="357.5915" y1="175.7099" x2="389.2358" y2="175.7099">
			<stop  offset="0" style="stop-color:#FFD57A"/>
			<stop  offset="0.223" style="stop-color:#FED179"/>
			<stop  offset="0.4553" style="stop-color:#FDC574"/>
			<stop  offset="0.6917" style="stop-color:#FAB06C"/>
			<stop  offset="0.9297" style="stop-color:#F79361"/>
			<stop  offset="1" style="stop-color:#F6895D"/>
		</linearGradient>
		<path class="st74" d="M389.2,179.1c0,0-11.6,3.3-14.2,3.4c-2.6,0.1-15.8-0.7-16.3-0.8c-0.5-0.1-1.8-2.3-0.7-5.8
			c1.1-3.6,2.8-7.5,3.9-7c1.1,0.5,7.2,3.6,10.3,3.8c3.1,0.2,15-1.7,15-1.7l1.9,7.6"/>
	</g>
	<linearGradient id="SVGID_66_" gradientUnits="userSpaceOnUse" x1="385.4388" y1="92.823" x2="387.9749" y2="77.5663">
		<stop  offset="0" style="stop-color:#FFD57A"/>
		<stop  offset="0.223" style="stop-color:#FED179"/>
		<stop  offset="0.4553" style="stop-color:#FDC574"/>
		<stop  offset="0.6917" style="stop-color:#FAB06C"/>
		<stop  offset="0.9297" style="stop-color:#F79361"/>
		<stop  offset="1" style="stop-color:#F6895D"/>
	</linearGradient>
	<path class="st75" d="M389.6,71h-4.5c0,0-6,4.3-5.5,8.2v0.3l0.5,8.8c0,0,2.6,5.7,6.9,6.2c0,0,0.3,0,0.4,0c0.1,0,0.4,0,0.4,0
		c4.3-0.5,6.6-5.9,6.6-5.9l0.5-9v-0.3C395.3,75.3,389.6,71,389.6,71z"/>
	<path class="st70" d="M387.2,72.1c0,0-3,10.3-8.3,9.8c-5.3-0.5,2-7.9,2-7.9"/>
	<path class="st70" d="M384.9,72.1c0,0,3.5,11.6,10.1,11.6c5.4,0-3.8-9.7-3.8-9.7"/>
	<linearGradient id="SVGID_67_" gradientUnits="userSpaceOnUse" x1="409.3623" y1="123.0574" x2="405.4264" y2="125.6349">
		<stop  offset="0" style="stop-color:#FFFFFF"/>
		<stop  offset="0.5293" style="stop-color:#EFEFEF"/>
		<stop  offset="1" style="stop-color:#E6E6E6"/>
	</linearGradient>
	<polygon class="st76" points="409.6,118.1 410.1,127.4 405.6,127.4 	"/>
	
		<linearGradient id="SVGID_68_" gradientUnits="userSpaceOnUse" x1="4119.7827" y1="123.3004" x2="4115.8467" y2="125.878" gradientTransform="matrix(-1 0 0 1 4485 0)">
		<stop  offset="0" style="stop-color:#FFFFFF"/>
		<stop  offset="0.5293" style="stop-color:#EFEFEF"/>
		<stop  offset="1" style="stop-color:#E6E6E6"/>
	</linearGradient>
	<polygon class="st77" points="365,118.4 364.5,127.6 369,127.6 	"/>
	<linearGradient id="SVGID_69_" gradientUnits="userSpaceOnUse" x1="376.4263" y1="144.1708" x2="369.252" y2="130.5934">
		<stop  offset="0" style="stop-color:#FFD57A"/>
		<stop  offset="0.223" style="stop-color:#FED179"/>
		<stop  offset="0.4553" style="stop-color:#FDC574"/>
		<stop  offset="0.6917" style="stop-color:#FAB06C"/>
		<stop  offset="0.9297" style="stop-color:#F79361"/>
		<stop  offset="1" style="stop-color:#F6895D"/>
	</linearGradient>
	<path class="st78" d="M386.3,132c0,0-0.8-3-0.7-4.7c0.1-1.7,0.7-3.4,0.6-4c0-0.2-1.9-1.3-3.1-2.1c-1.6-1.1-2.3-3-2.8-2.9
		c-0.8,0.3-1.8,4.3-2.3,4.5c-0.5,0.2-1.7-1.4-2.3-1.5c-0.5-0.1-0.5,1.1-0.5,1.1l1.7,3.9l1.2,2.2L356.9,145c0,0,1.7,10.7,9.1,6.9
		l17.8-18.6l1.5-0.6L386.3,132z"/>
	
		<linearGradient id="SVGID_70_" gradientUnits="userSpaceOnUse" x1="-51.959" y1="143.8173" x2="-59.1332" y2="130.2399" gradientTransform="matrix(-1 0 0 1 346.5605 0)">
		<stop  offset="0" style="stop-color:#FFD57A"/>
		<stop  offset="0.223" style="stop-color:#FED179"/>
		<stop  offset="0.4553" style="stop-color:#FDC574"/>
		<stop  offset="0.6917" style="stop-color:#FAB06C"/>
		<stop  offset="0.9297" style="stop-color:#F79361"/>
		<stop  offset="1" style="stop-color:#F6895D"/>
	</linearGradient>
	<path class="st79" d="M388.6,131.7c0,0,0.8-3,0.7-4.7c-0.1-1.7-0.7-3.4-0.6-4c0-0.2,1.9-1.3,3.1-2.1c1.6-1.1,2.3-3,2.8-2.9
		c0.8,0.3,1.8,4.3,2.3,4.5c0.5,0.2,1.7-1.4,2.3-1.5c0.5-0.1,0.5,1.1,0.5,1.1l-1.7,3.9l-1.2,2.2l21.4,16.3c0,0-1.7,10.7-9.1,6.9
		L391.2,133c0,0-1-0.3-1.7-0.6C388.7,132.2,388.6,131.7,388.6,131.7z"/>
	<path class="st68" d="M387.2,69.7c0,0-3,14.2-10.9,12c-3.9-1.1,6-11.6,6-11.6"/>
	<path class="st68" d="M385.6,69.9c0,0,2.1,12.1,10.1,13.4c8,1.3-2.7-12.5-2.7-12.5"/>
	<path class="st11" d="M384.3,88.5h6.2c0,0-0.8,2.4-3,2.4C385.4,90.9,384.3,88.5,384.3,88.5z"/>
	<linearGradient id="SVGID_71_" gradientUnits="userSpaceOnUse" x1="389.6382" y1="115.7867" x2="395.0225" y2="126.72">
		<stop  offset="0" style="stop-color:#FFD57A;stop-opacity:0"/>
		<stop  offset="0.4354" style="stop-color:#FAAD6B;stop-opacity:0.4354"/>
		<stop  offset="0.7895" style="stop-color:#F79360;stop-opacity:0.7895"/>
		<stop  offset="1" style="stop-color:#F6895D"/>
	</linearGradient>
	<path class="st80" d="M394.9,118.1l-5.4,3.7c0,0,1.2,3.7,1.2,3.9c0,4.7,5.5-4.5,5.5-4.5L394.9,118.1z"/>
	<g>
		<path class="st11" d="M403.5,152h-34.3c-3.8,0-6.9-3.1-6.9-6.9v-19.9c0-3.8,3.1-6.9,6.9-6.9h34.3c3.8,0,6.9,3.1,6.9,6.9v19.9
			C410.4,148.9,407.3,152,403.5,152z"/>
		<linearGradient id="SVGID_72_" gradientUnits="userSpaceOnUse" x1="363.5718" y1="153.7063" x2="409.0961" y2="153.7063">
			<stop  offset="0" style="stop-color:#FFFFFF"/>
			<stop  offset="1" style="stop-color:#97CBEE"/>
		</linearGradient>
		<path class="st81" d="M406.8,156.5h-40.9c-1.3,0-2.3-1-2.3-2.3v-1c0-1.3,1-2.3,2.3-2.3h40.9c1.3,0,2.3,1,2.3,2.3v1
			C409.1,155.5,408.1,156.5,406.8,156.5z"/>
		<linearGradient id="SVGID_73_" gradientUnits="userSpaceOnUse" x1="383.2209" y1="135.1935" x2="389.4469" y2="135.1935">
			<stop  offset="0" style="stop-color:#FFFFFF"/>
			<stop  offset="1" style="stop-color:#97CBEE"/>
		</linearGradient>
		<circle class="st82" cx="386.3" cy="135.2" r="3.1"/>
	</g>
</g>
<g>
	<g>
		
			<linearGradient id="SVGID_74_" gradientUnits="userSpaceOnUse" x1="-2453.7766" y1="905.0085" x2="-2433.7068" y2="905.0085" gradientTransform="matrix(0.95 0.3123 -0.3123 0.95 3201.9351 201.8533)">
			<stop  offset="0.2957" style="stop-color:#FFDA8C"/>
			<stop  offset="0.4342" style="stop-color:#FDC785"/>
			<stop  offset="0.7142" style="stop-color:#F79773"/>
			<stop  offset="1" style="stop-color:#F15F5E"/>
		</linearGradient>
		<polyline class="st83" points="597.9,287.4 596.8,298.2 584.9,305.3 605.8,306 606,290.6 		"/>
		<path class="st68" d="M607.2,301.5l-0.4,5.6l-27-0.2l0.5-3.1l7.6-2.6c0,0,8-5.6,8.3-4.8c0.4,0.8,2.4,4.9,4.9,4.7
			c2.6-0.2,5.5-2.2,5.5-2.2L607.2,301.5z"/>
	</g>
	<g>
		<linearGradient id="SVGID_75_" gradientUnits="userSpaceOnUse" x1="568.0267" y1="153.0447" x2="602.1021" y2="153.0447">
			<stop  offset="0.2906" style="stop-color:#8BC53F"/>
			<stop  offset="0.4158" style="stop-color:#78BE40"/>
			<stop  offset="0.669" style="stop-color:#48AD42"/>
			<stop  offset="1" style="stop-color:#009345"/>
		</linearGradient>
		<path class="st84" d="M602.1,133.6c-1.3-0.1-2.6-0.2-4-0.2c-12.3,0-23.2,5.9-30.1,15.1c11.7,9.6,28.7,24.2,28.7,24.2L602.1,133.6z
			"/>
		<linearGradient id="SVGID_76_" gradientUnits="userSpaceOnUse" x1="561.239" y1="181.3525" x2="643.5836" y2="181.3525">
			<stop  offset="0.2957" style="stop-color:#FDB73F"/>
			<stop  offset="0.6822" style="stop-color:#F9A52F"/>
			<stop  offset="1" style="stop-color:#F6921E"/>
		</linearGradient>
		<path class="st85" d="M606.8,140.3l-5.9,42.9c0,0-18.6-16-31.4-26.6c-5.1,6.9-8.2,15.4-8.2,24.6c0,22.7,18.4,41.2,41.2,41.2
			s41.2-18.4,41.2-41.2C643.6,160,627.5,142.5,606.8,140.3z"/>
	</g>
	<g>
		
			<linearGradient id="SVGID_77_" gradientUnits="userSpaceOnUse" x1="-2085.741" y1="318.0565" x2="-2065.5481" y2="318.0565" gradientTransform="matrix(0.9319 -0.3628 0.3628 0.9319 2488.8928 -727.1732)">
			<stop  offset="0.2957" style="stop-color:#FFDA8C"/>
			<stop  offset="0.4342" style="stop-color:#FDC785"/>
			<stop  offset="0.7142" style="stop-color:#F79773"/>
			<stop  offset="1" style="stop-color:#F15F5E"/>
		</linearGradient>
		<polyline class="st86" points="663.2,313.3 669.2,322.6 664.6,336 681.1,322.9 671.5,310.5 		"/>
		<path class="st68" d="M679.4,319.5l2.6,5.1l-23.2,14.3l-1.2-3l5.1-6.4c0,0,3.9-9.1,4.6-8.6c0.7,0.5,4.6,3,6.6,1.4
			c2.1-1.6,3.6-4.8,3.6-4.8L679.4,319.5z"/>
	</g>
	<g>
		
			<linearGradient id="SVGID_78_" gradientUnits="userSpaceOnUse" x1="-4134.1816" y1="-80.166" x2="-4123.7871" y2="-76.22" gradientTransform="matrix(-0.9944 0.1053 0.1053 0.9944 -3450.2666 678.6003)">
			<stop  offset="0" style="stop-color:#F15F5E"/>
			<stop  offset="1" style="stop-color:#FFDA8C"/>
		</linearGradient>
		<polyline class="st87" points="648.7,161.4 649.4,174.6 639.6,177.8 640,171.8 641.9,159.2 		"/>
		<path class="st68" d="M638.7,152.4c-5.5-4.6-5.6-13,0.9-13.3c6.5-0.3,16.5,11.6,16.5,11.6l-7.1,13.8l-2.9-3"/>
		<path class="st88" d="M648.6,161.1c0,0,0.3,6.9-8.2,7.3l1.1-4.5"/>
		<linearGradient id="SVGID_79_" gradientUnits="userSpaceOnUse" x1="633.0282" y1="163.573" x2="651.3496" y2="149.1087">
			<stop  offset="0" style="stop-color:#FFD57A"/>
			<stop  offset="0.223" style="stop-color:#FED179"/>
			<stop  offset="0.4553" style="stop-color:#FDC574"/>
			<stop  offset="0.6917" style="stop-color:#FAB06C"/>
			<stop  offset="0.9297" style="stop-color:#F79361"/>
			<stop  offset="1" style="stop-color:#F6895D"/>
		</linearGradient>
		<path class="st89" d="M636.9,151.4c0,0-3.9,15.2,0.6,16.4c4.5,1.1,8.3-4.7,8.3-4.7s0.9,1.8,2.7-0.7c1.8-2.5,2.2-6.6,0-6.5
			c-2.3,0-1.9,0.3-1.9,0.3l0.9-3.8l-10.3-3.3L636.9,151.4z"/>
	</g>
	<polyline points="634.3,226.9 636.8,245.2 645.7,282.2 663.2,317.4 675.5,312.6 661.2,278.3 661.2,234.9 659.1,223.3 	"/>
	<path class="st90" d="M648.3,253.7l-38.1,5.2l-3.4,36l-11.7-1.2c0,0-3.6-41.6-0.8-43.7c2.8-2.2,38.8-18.4,38.8-18.4l28,0.5
		c0,0-0.3,11.1-4.1,15.9C657.1,247.9,650.8,253.4,648.3,253.7z"/>
	<linearGradient id="SVGID_80_" gradientUnits="userSpaceOnUse" x1="630.4165" y1="200.7867" x2="661.1633" y2="200.7867">
		<stop  offset="0" style="stop-color:#A5769C"/>
		<stop  offset="1" style="stop-color:#7B2D8C"/>
	</linearGradient>
	<path class="st91" d="M649.6,170.4c0,0-12.5,2.5-16.2,12.5c-3.7,10-2.9,48.3-2.9,48.3l30.7-2.5
		C661.2,228.7,661.3,174.8,649.6,170.4z"/>
	<g>
		<linearGradient id="SVGID_81_" gradientUnits="userSpaceOnUse" x1="585.8691" y1="222.61" x2="612.4406" y2="210.61">
			<stop  offset="9.139790e-02" style="stop-color:#FFDA8C"/>
			<stop  offset="0.2657" style="stop-color:#FFD68A"/>
			<stop  offset="0.4286" style="stop-color:#FDCB86"/>
			<stop  offset="0.5869" style="stop-color:#FBB87F"/>
			<stop  offset="0.7424" style="stop-color:#F89E75"/>
			<stop  offset="0.8944" style="stop-color:#F47C69"/>
			<stop  offset="1" style="stop-color:#F15F5E"/>
		</linearGradient>
		<path class="st92" d="M602.4,215.6c0,0-1.6,0.1-3-0.6c-1.4-0.7-3.3-4.1-3.3-4.1s-1-0.1-0.7,1.6c0.2,1.7,2.1,3.2,0.9,4.2
			c-1.4,1.2-1.5,0.6-3.2,1.3c-1.6,0.7-6.9,0-6.9,0s-0.4,2.6,2,3.3c1.6,1.5,2.7,3.6,4.2,4.1c1.5,0.4,2.6-0.1,2.6-0.1l3.3-1.7l4.1-1.3
			"/>
		<path class="st93" d="M636.5,181.4c0,0-10,19.6-10.4,21.2c-0.4,1.6-21.7,11.4-23.7,11.8c-2,0.4-0.7,8.7,0.5,9.1
			c1.2,0.4,23.2-7,26-8.1c2.4-0.9,21-22.3,19.3-30.9C645.9,172.9,637.7,179,636.5,181.4z"/>
	</g>
	<rect x="629.8" y="225" class="st94" width="31.4" height="7"/>
</g>
<g>
	<g>
		
			<linearGradient id="SVGID_82_" gradientUnits="userSpaceOnUse" x1="865.4796" y1="323.8575" x2="931.0426" y2="323.8575" gradientTransform="matrix(0.9959 -9.080000e-02 9.080000e-02 0.9959 -252.2294 -157.5972)">
			<stop  offset="0.2957" style="stop-color:#FDB73F"/>
			<stop  offset="0.6822" style="stop-color:#F9A52F"/>
			<stop  offset="1" style="stop-color:#F6921E"/>
		</linearGradient>
		<path class="st95" d="M700.8,64.8l-2.9-4.2c-2.7-4.6-8-7.3-15.3-7c-15,0.6-32.9,13.5-39.9,28.8c-4.3,9.4-3.5,17.5,1.2,22.3
			l3.4,3.6c3,3.6,8.2,5.5,15,4.9c15.1-1.3,32.6-14.4,39-29.1C704.8,76,704.4,69.2,700.8,64.8z"/>
		
			<linearGradient id="SVGID_83_" gradientUnits="userSpaceOnUse" x1="861.8474" y1="317.964" x2="924.0669" y2="317.964" gradientTransform="matrix(0.9959 -9.080000e-02 9.080000e-02 0.9959 -252.2294 -157.5972)">
			<stop  offset="0.2957" style="stop-color:#FDB73F"/>
			<stop  offset="0.6822" style="stop-color:#F9A52F"/>
			<stop  offset="1" style="stop-color:#F6921E"/>
		</linearGradient>
		<path class="st96" d="M693.1,76.9c-7,15.3-24.9,28.2-39.9,28.8c-15,0.6-21.5-11.3-14.5-26.6c7-15.3,24.9-28.2,39.9-28.8
			C693.6,49.6,700.1,61.6,693.1,76.9z"/>
		<path class="st50" d="M654.4,102.6c-0.4,0-0.9,0.1-1.3,0.1c-5.6,0.2-9.9-1.5-12.2-4.9c-2.8-4.1-2.5-10.5,0.6-17.4
			c3.1-6.7,8.5-13.2,15.3-18.3c6.7-5,14.1-8.1,20.6-8.7c0.4,0,0.9-0.1,1.3-0.1c5.6-0.2,9.9,1.5,12.2,4.9c2.8,4.1,2.5,10.5-0.6,17.4
			c-3.1,6.7-8.5,13.2-15.3,18.3C668.3,98.9,661,102,654.4,102.6z"/>
	</g>
	<g>
		<path class="st11" d="M656.2,92.9c-3.4-0.1-5.8-1.1-7.5-4.1l6.9-5.6c1.7,2.5,4.8,2.7,7.3,2.5c2.8-0.2,5.1-1.4,5.8-3
			c0.6-1.5-0.7-2.2-3.8-2.2c-6.3,0-11.2-1.1-8.1-8.4c2.1-4.9,7.3-8,12.5-9.3L671,59l7.2-0.6l-1.6,3.7c2.7,0.2,4.8,0.9,6.4,2.5
			l-6.5,5.6c-1.4-1.3-3.5-1.6-6.1-1.4c-2.1,0.2-4.3,1-5,2.5c-0.9,2,1,2.1,3.8,2.1c5.7,0.1,10.8,1.9,7.9,8.6
			c-2.4,5.5-8,8.7-13.7,10.1l0,0l-1.8,4l-7.2,0.6L656.2,92.9z"/>
	</g>
</g>
<rect x="571" y="306.6" class="st11" width="39.4" height="29.3"/>
<linearGradient id="SVGID_84_" gradientUnits="userSpaceOnUse" x1="518.9286" y1="305.2872" x2="558.3301" y2="305.2872">
	<stop  offset="0" style="stop-color:#A5769C"/>
	<stop  offset="1" style="stop-color:#7B2D8C"/>
</linearGradient>
<rect x="518.9" y="274.7" class="st97" width="39.4" height="61.2"/>
<linearGradient id="SVGID_85_" gradientUnits="userSpaceOnUse" x1="466.8771" y1="294.5579" x2="506.2786" y2="294.5579">
	<stop  offset="0" style="stop-color:#282560"/>
	<stop  offset="1" style="stop-color:#18052D"/>
</linearGradient>
<rect x="466.9" y="253.2" class="st98" width="39.4" height="82.6"/>
</svg>
